<svg data-v-423bf9ae="" xmlns="http://www.w3.org/2000/svg" viewBox="0 0 399.0583437811262 196" class="iconAboveSlogan"><!----><!----><!----><g data-v-423bf9ae="" id="c773ee27-ecef-45c8-81f4-a69b16a599ea" fill="black" transform="matrix(6.1412482261657715,0,0,6.1412482261657715,-1.4739001989364624,98.91105651855469)"><path d="M1.85 12.67L0.24 2.90L2.08 2.90L3.12 9.92L5.67 2.90L7.41 2.90L9.79 9.65L10.90 2.90L12.68 2.90L10.84 12.67L9.12 12.67L6.43 5.00L3.55 12.67L1.85 12.67ZM13.95 2.90L20.64 2.90L20.64 4.46L15.74 4.46L15.74 6.92L20.41 6.92L20.41 8.54L15.72 8.54L15.72 11.10L20.73 11.10L20.73 12.67L13.95 12.67L13.95 2.90ZM26.84 12.67L22.41 12.67L22.41 2.90L26.99 2.90L26.99 2.90Q29.78 2.90 29.78 5.17L29.78 5.17L29.78 5.17Q29.78 6.84 27.96 7.56L27.96 7.56L27.96 7.56Q29.90 7.92 29.90 9.78L29.90 9.78L29.90 9.78Q29.90 12.67 26.84 12.67L26.84 12.67ZM24.22 11.10L26.77 11.10L26.77 11.10Q27.97 11.10 27.97 9.87L27.97 9.87L27.97 9.87Q27.97 8.35 26.17 8.35L26.17 8.35L25.63 8.35L25.63 7.18L25.63 7.18Q27.88 6.80 27.88 5.29L27.88 5.29L27.88 5.29Q27.88 4.47 26.87 4.47L26.87 4.47L24.22 4.47L24.22 11.10ZM31.44 2.90L37.86 2.90L37.86 4.46L33.24 4.46L33.24 6.92L37.63 6.92L37.63 8.54L33.22 8.54L33.22 12.67L31.44 12.67L31.44 2.90ZM41.24 12.66L39.40 12.66L39.40 2.90L43.84 2.90L43.84 2.90Q46.83 2.90 46.83 5.52L46.83 5.52L46.83 5.52Q46.83 7.29 44.50 8.45L44.50 8.45L47.60 12.67L45.32 12.67L42.34 8.42L42.34 7.59L42.34 7.59Q44.94 7.14 44.94 5.57L44.94 5.57L44.94 5.57Q44.94 4.49 43.72 4.49L43.72 4.49L41.24 4.49L41.24 12.66ZM48.45 2.90L55.15 2.90L55.15 4.46L50.25 4.46L50.25 6.92L54.91 6.92L54.91 8.54L50.23 8.54L50.23 11.10L55.24 11.10L55.24 12.67L48.45 12.67L48.45 2.90ZM59.81 9.26L56.06 2.90L58.01 2.90L60.76 7.61L63.34 2.90L65.22 2.90L61.63 9.26L61.63 12.67L59.81 12.67L59.81 9.26Z"></path></g><!----><g data-v-423bf9ae="" id="345732bd-823d-4c5f-a97b-d727f6889cfd" transform="matrix(1.0735231637954712,0,0,1.0735231637954712,148.80873107910156,1.1623870134353638)" stroke="none" fill="black"><path d="M87.88 24.416V1.692c0-.724-.396-1.392-1.024-1.744a1.992 1.992 0 0 0-2.023.04L67.428 10.68c-5.648-2.068-12.5-3.24-18.976-3.24-6.716 0-14.164 1.236-19.732 3.244L10.908-.024a1.998 1.998 0 0 0-2.016-.024 1.992 1.992 0 0 0-1.016 1.74V24.42C4.2 29.752 2.34 36.436 2.34 44.4l.616 13.552c.04.828.584 1.556 1.372 1.808l9.996 3.301-3.352 13.699c-.168.688.04 1.416.556 1.912.512.5 1.252.68 1.932.484l11.46-3.268 3.484 18.783c.112.608.5 1.133 1.052 1.416.548.276 1.2.292 1.76.032l16.9-7.864L65 96.12c.264.128.561.188.844.188.313 0 .62-.076.912-.217a2.014 2.014 0 0 0 1.053-1.412l3.455-18.068 11.457 2.945c.172.047.352.071.539.063 1.112-.048 2.04-.884 2.04-2 0-.36-.096-.704-.268-1l-3.337-13.396 9.793-3.381a1.987 1.987 0 0 0 1.344-1.764l.832-13.728c0-7.69-1.948-14.394-5.784-19.934zM68.296 31.88l-8.416 5.408v29.868c.017.132.084.252.084.392s-.067.257-.084.392v.256c0 .584-.26 1.109-.668 1.473-1.792 2.551-6.72 3.751-11.412 3.751-5.852 0-12.152-1.844-12.152-5.88 0-.412.104-.784.232-1.151V37.284l-8.416-5.408a2.002 2.002 0 0 1-.6-2.764 1.998 1.998 0 0 1 2.764-.6l9.336 6a2 2 0 0 1 .916 1.68v26.785c2.26-.881 5.132-1.313 7.92-1.313 2.849 0 5.796.443 8.08 1.359V36.196c0-.676.345-1.316.916-1.68l9.328-6a1.998 1.998 0 0 1 2.765.6 1.994 1.994 0 0 1-.593 2.764z"></path><path d="M39.88 67.436v.44c.84.468 3.524 1.544 7.92 1.544 4.776 0 7.513-1.264 8.08-1.916v-.184c-.567-.385-3.304-1.645-8.08-1.645-4.392.001-7.08 1.081-7.92 1.761z"></path></g><!----><g data-v-423bf9ae="" id="fbe5d49b-9d4c-4e7f-80e1-ef9d82b4cdcf" fill="black" transform="matrix(0.6909223794937134,0,0,0.6909223794937134,50.470577239990234,216.4376678466797)"><path d="M4.10 12.41L0.38 12.41L0.38 11.87L0.81 11.87L0.81 11.87Q1.19 11.87 1.24 11.81L1.24 11.81L1.24 11.81Q1.31 11.74 1.32 11.46L1.32 11.46L1.32 4.14L1.32 4.14Q1.32 3.81 1.23 3.72L1.23 3.72L1.23 3.72Q1.15 3.64 0.79 3.64L0.79 3.64L0.42 3.64L0.43 3.08L3.32 3.08L3.32 3.08Q4.46 3.08 5.11 3.19L5.11 3.19L5.11 3.19Q5.71 3.28 6.19 3.68L6.19 3.68L6.19 3.68Q7.38 4.64 7.38 6.19L7.38 6.19L7.38 6.19Q7.38 7.23 6.61 7.98L6.61 7.98L6.61 7.98Q5.83 8.74 4.42 8.73L4.42 8.73L4.42 8.73Q4.25 8.73 3.83 8.70L3.83 8.70L3.83 8.70Q3.73 8.69 3.30 8.62L3.30 8.62L3.30 8.62Q2.97 8.55 2.87 8.54L2.87 8.54L2.87 8.54Q2.58 8.47 2.56 8.46L2.56 8.46L2.45 8.44L2.45 11.46L2.45 11.46Q2.45 11.74 2.58 11.81L2.58 11.81L2.58 11.81Q2.69 11.87 3.40 11.87L3.40 11.87L4.10 11.87L4.10 12.41ZM2.45 4.28L2.45 8.02L2.45 8.02Q2.80 8.29 3.77 8.29L3.77 8.29L3.77 8.29Q4.90 8.29 5.48 7.75L5.48 7.75L5.48 7.75Q6.06 7.21 6.06 6.16L6.06 6.16L6.06 6.16Q6.06 4.98 5.15 4.31L5.15 4.31L5.15 4.31Q4.26 3.64 2.87 3.64L2.87 3.64L2.87 3.64Q2.62 3.64 2.54 3.75L2.54 3.75L2.54 3.75Q2.45 3.84 2.45 4.28L2.45 4.28ZM15.69 3.64L15.30 3.64L15.31 3.08L18.53 3.08L18.53 3.08Q19.67 3.08 20.27 3.21L20.27 3.21L20.27 3.21Q20.91 3.37 21.38 3.75L21.38 3.75L21.38 3.75Q22.38 4.57 22.38 5.71L22.38 5.71L22.38 5.71Q22.38 6.43 21.91 7.04L21.91 7.04L21.91 7.04Q21.42 7.66 20.38 7.92L20.38 7.92L23.07 11.49L23.07 11.49Q23.38 11.87 23.67 11.87L23.67 11.87L24.27 11.87L24.30 12.41L22.27 12.41L19.28 8.10L19.11 8.10L19.11 8.10Q19.07 8.10 19.01 8.11L19.01 8.11L19.01 8.11Q18.96 8.11 18.94 8.11L18.94 8.11L18.94 8.11Q18.06 8.11 17.66 8.03L17.66 8.03L17.66 11.46L17.66 11.46Q17.66 11.76 17.81 11.81L17.81 11.81L17.81 11.81Q17.93 11.87 18.63 11.87L18.63 11.87L19.35 11.87L19.32 12.41L15.59 12.41L15.59 11.87L15.91 11.87L15.91 11.87Q16.38 11.87 16.45 11.81L16.45 11.81L16.45 11.81Q16.53 11.74 16.53 11.46L16.53 11.46L16.53 4.14L16.53 4.14Q16.53 3.82 16.34 3.73L16.34 3.73L16.34 3.73Q16.11 3.64 15.69 3.64L15.69 3.64ZM17.66 4.28L17.66 7.57L17.66 7.57Q17.85 7.70 18.56 7.71L18.56 7.71L18.56 7.71Q19.83 7.71 20.41 7.27L20.41 7.27L20.41 7.27Q21 6.84 21 5.92L21 5.92L21 5.92Q21 4.92 20.23 4.27L20.23 4.27L20.23 4.27Q19.47 3.64 18.09 3.64L18.09 3.64L18.09 3.64Q17.83 3.64 17.75 3.75L17.75 3.75L17.75 3.75Q17.67 3.84 17.66 4.28L17.66 4.28ZM32.07 3.64L32.05 3.08L39.27 3.08L39.27 3.08Q39.28 4.14 39.33 5.28L39.33 5.28L38.79 5.30L38.79 5.30Q38.77 4.66 38.72 4.25L38.72 4.25L38.72 4.25Q38.68 3.89 38.62 3.80L38.62 3.80L38.62 3.80Q38.57 3.71 38.45 3.69L38.45 3.69L38.45 3.69Q38.36 3.68 37.77 3.68L37.77 3.68L35.39 3.68L35.39 3.68Q34.84 3.68 34.70 3.77L34.70 3.77L34.70 3.77Q34.58 3.86 34.58 4.33L34.58 4.33L34.58 6.28L34.58 6.28Q34.58 6.69 34.63 6.76L34.63 6.76L34.63 6.76Q34.70 6.84 35.04 6.84L35.04 6.84L37.15 6.84L37.15 6.84Q37.52 6.84 37.60 6.73L37.60 6.73L37.60 6.73Q37.68 6.63 37.69 6.14L37.69 6.14L37.69 5.61L38.20 5.63L38.20 8.97L37.69 8.97L37.69 8.24L37.69 8.24Q37.69 7.66 37.61 7.57L37.61 7.57L37.61 7.57Q37.53 7.46 37.18 7.46L37.18 7.46L35.08 7.46L35.08 7.46Q34.75 7.46 34.66 7.54L34.66 7.54L34.66 7.54Q34.58 7.63 34.58 7.89L34.58 7.89L34.58 11.20L34.58 11.20Q34.58 11.57 34.66 11.67L34.66 11.67L34.66 11.67Q34.75 11.77 35.02 11.77L35.02 11.77L35.02 11.77Q37.94 11.75 38.47 11.69L38.47 11.69L38.47 11.69Q38.99 11.63 39.07 11.38L39.07 11.38L39.07 11.36L39.08 11.35L39.31 10.17L39.79 10.25L39.44 12.41L32.33 12.41L32.33 11.87L32.70 11.87L32.70 11.87Q33.26 11.87 33.35 11.80L33.35 11.80L33.35 11.80Q33.44 11.72 33.44 11.33L33.44 11.33L33.44 4.24L33.44 4.24Q33.44 3.82 33.29 3.73L33.29 3.73L33.29 3.73Q33.12 3.64 32.46 3.64L32.46 3.64L32.07 3.64ZM47.63 10.04L47.63 10.04L48.13 9.98L48.31 10.85L48.31 10.85Q48.42 11.33 48.49 11.41L48.49 11.41L48.49 11.41Q48.56 11.49 48.97 11.64L48.97 11.64L48.97 11.64Q49.81 11.95 50.70 11.95L50.70 11.95L50.70 11.95Q51.49 11.95 52.03 11.49L52.03 11.49L52.03 11.49Q52.56 11.04 52.56 10.26L52.56 10.26L52.56 10.26Q52.56 9.65 52.10 9.21L52.10 9.21L52.10 9.21Q51.63 8.76 50.77 8.30L50.77 8.30L50.20 7.98L50.20 7.98Q49.45 7.55 49.22 7.36L49.22 7.36L49.22 7.36Q48.86 7.08 48.55 6.59L48.55 6.59L48.55 6.59Q48.23 6.10 48.23 5.46L48.23 5.46L48.23 5.46Q48.23 4.39 49.08 3.68L49.08 3.68L49.08 3.68Q49.92 2.97 51.02 2.97L51.02 2.97L51.02 2.97Q51.30 2.97 51.65 3.04L51.65 3.04L51.65 3.04Q51.85 3.08 52.19 3.17L52.19 3.17L52.42 3.25L52.42 3.25Q52.52 3.25 52.56 3.16L52.56 3.16L52.56 3.16Q52.62 3.05 52.62 2.98L52.62 2.98L52.63 2.88L53.11 2.85L53.32 5.41L52.81 5.43L52.69 4.18L52.69 4.18Q51.95 3.62 50.78 3.62L50.78 3.62L50.78 3.62Q50.14 3.62 49.64 4.05L49.64 4.05L49.64 4.05Q49.16 4.47 49.16 5.12L49.16 5.12L49.16 5.12Q49.16 5.72 49.61 6.17L49.61 6.17L49.61 6.17Q50.04 6.60 50.91 7.08L50.91 7.08L51.68 7.50L51.68 7.50Q52.63 8.03 53.16 8.59L53.16 8.59L53.16 8.59Q53.70 9.15 53.70 9.92L53.70 9.92L53.70 9.92Q53.70 10.99 52.84 11.76L52.84 11.76L52.84 11.76Q51.97 12.54 50.52 12.54L50.52 12.54L50.52 12.54Q49.96 12.54 49.45 12.41L49.45 12.41L49.45 12.41Q48.95 12.29 48.90 12.29L48.90 12.29L48.90 12.29Q48.64 12.29 48.64 12.58L48.64 12.58L48.66 12.76L48.18 12.80L48.18 12.80Q48.12 12.41 47.63 10.04ZM61.89 3.64L61.88 3.08L69.09 3.08L69.09 3.08Q69.10 4.14 69.16 5.28L69.16 5.28L68.61 5.30L68.61 5.30Q68.60 4.66 68.54 4.25L68.54 4.25L68.54 4.25Q68.50 3.89 68.45 3.80L68.45 3.80L68.45 3.80Q68.39 3.71 68.28 3.69L68.28 3.69L68.28 3.69Q68.18 3.68 67.59 3.68L67.59 3.68L65.21 3.68L65.21 3.68Q64.67 3.68 64.52 3.77L64.52 3.77L64.52 3.77Q64.40 3.86 64.40 4.33L64.40 4.33L64.40 6.28L64.40 6.28Q64.40 6.69 64.46 6.76L64.46 6.76L64.46 6.76Q64.52 6.84 64.87 6.84L64.87 6.84L66.98 6.84L66.98 6.84Q67.34 6.84 67.42 6.73L67.42 6.73L67.42 6.73Q67.50 6.63 67.51 6.14L67.51 6.14L67.51 5.61L68.02 5.63L68.02 8.97L67.51 8.97L67.51 8.24L67.51 8.24Q67.51 7.66 67.44 7.57L67.44 7.57L67.44 7.57Q67.35 7.46 67.01 7.46L67.01 7.46L64.91 7.46L64.91 7.46Q64.57 7.46 64.49 7.54L64.49 7.54L64.49 7.54Q64.40 7.63 64.40 7.89L64.40 7.89L64.40 11.20L64.40 11.20Q64.40 11.57 64.49 11.67L64.49 11.67L64.49 11.67Q64.57 11.77 64.85 11.77L64.85 11.77L64.85 11.77Q67.76 11.75 68.29 11.69L68.29 11.69L68.29 11.69Q68.81 11.63 68.89 11.38L68.89 11.38L68.90 11.36L68.91 11.35L69.13 10.17L69.61 10.25L69.26 12.41L62.16 12.41L62.16 11.87L62.53 11.87L62.53 11.87Q63.09 11.87 63.17 11.80L63.17 11.80L63.17 11.80Q63.27 11.72 63.27 11.33L63.27 11.33L63.27 4.24L63.27 4.24Q63.27 3.82 63.12 3.73L63.12 3.73L63.12 3.73Q62.95 3.64 62.29 3.64L62.29 3.64L61.89 3.64ZM77.50 3.64L77.49 3.08L79.66 3.08L85.39 10.48L85.39 4.14L85.39 4.14Q85.39 3.81 85.24 3.72L85.24 3.72L85.24 3.72Q85.09 3.64 84.63 3.64L84.63 3.64L84.14 3.64L84.16 3.08L87.14 3.08L87.14 3.64L86.82 3.64L86.82 3.64Q86.36 3.64 86.21 3.75L86.21 3.75L86.21 3.75Q86.06 3.86 86.06 4.25L86.06 4.25L86.06 12.32L86.06 12.47L86.06 12.47Q86.06 12.52 86.04 12.57L86.04 12.57L86.04 12.57Q86.03 12.61 86.00 12.64L86.00 12.64L86.00 12.64Q85.98 12.65 85.93 12.65L85.93 12.65L85.74 12.65L85.67 12.65L85.65 12.65L85.62 12.64L85.62 12.64Q85.59 12.64 85.58 12.63L85.58 12.63L85.58 12.63Q85.57 12.61 85.57 12.60L85.57 12.60L85.57 12.60Q85.57 12.58 85.55 12.57L85.55 12.57L85.55 12.57Q85.52 12.54 85.50 12.50L85.50 12.50L85.50 12.50Q85.48 12.48 85.46 12.45L85.46 12.45L85.46 12.45Q85.44 12.41 85.43 12.40L85.43 12.40L79.32 4.56L79.39 11.22L79.39 11.22Q79.39 11.67 79.56 11.77L79.56 11.77L79.56 11.77Q79.71 11.87 80.42 11.87L80.42 11.87L80.66 11.87L80.66 12.41L77.72 12.41L77.72 11.87L78.15 11.87L78.15 11.87Q78.52 11.87 78.63 11.76L78.63 11.76L78.63 11.76Q78.73 11.66 78.74 11.25L78.74 11.25L78.74 3.80L78.59 3.64L77.50 3.64ZM95.27 8.02L95.27 8.02L95.27 8.02Q95.27 6.86 95.74 5.83L95.74 5.83L95.74 5.83Q96.20 4.85 96.95 4.27L96.95 4.27L96.95 4.27Q97.70 3.69 98.59 3.37L98.59 3.37L98.59 3.37Q99.49 3.05 100.33 3.05L100.33 3.05L100.33 3.05Q101.20 3.05 101.87 3.16L101.87 3.16L101.87 3.16Q102.50 3.26 102.79 3.37L102.79 3.37L102.79 3.37Q103.10 3.48 103.13 3.48L103.13 3.48L103.13 3.48Q103.30 3.48 103.33 3.41L103.33 3.41L103.33 3.41Q103.35 3.33 103.35 3.09L103.35 3.09L103.35 2.97L103.89 2.97L103.89 2.97Q103.93 4.30 104.06 5.64L104.06 5.64L103.55 5.65L103.55 5.65Q103.52 5.40 103.51 5.26L103.51 5.26L103.51 5.26Q103.51 5.20 103.50 5.13L103.50 5.13L103.50 5.13Q103.50 5.07 103.49 5.02L103.49 5.02L103.49 5.02Q103.48 4.98 103.48 4.95L103.48 4.95L103.48 4.95Q103.46 4.84 103.46 4.74L103.46 4.74L103.46 4.74Q103.46 4.68 103.41 4.59L103.41 4.59L103.41 4.59Q103.41 4.57 103.38 4.55L103.38 4.55L103.38 4.55Q103.35 4.52 103.35 4.50L103.35 4.50L103.35 4.50Q103.33 4.44 103.26 4.41L103.26 4.41L103.26 4.41Q103.22 4.38 103.19 4.37L103.19 4.37L103.19 4.37Q103.16 4.36 103.13 4.35L103.13 4.35L103.13 4.35Q103.12 4.35 103.10 4.33L103.10 4.33L103.10 4.33Q103.07 4.31 103.03 4.29L103.03 4.29L103.03 4.29Q102.99 4.27 102.95 4.25L102.95 4.25L102.95 4.25Q102.72 4.16 102.70 4.14L102.70 4.14L102.70 4.14Q102.35 3.96 101.71 3.83L101.71 3.83L101.71 3.83Q101.04 3.71 100.37 3.71L100.37 3.71L100.37 3.71Q98.65 3.71 97.56 4.84L97.56 4.84L97.56 4.84Q96.45 5.99 96.46 7.62L96.46 7.62L96.46 7.62Q96.46 9.35 97.67 10.69L97.67 10.69L97.67 10.69Q98.88 12.02 100.69 12.02L100.69 12.02L100.69 12.02Q101.70 12.02 102.64 11.49L102.64 11.49L102.64 11.49Q103.59 10.94 103.62 10.58L103.62 10.58L103.66 9.41L104.15 9.41L104.07 11.45L104.07 11.45Q104.00 11.49 103.87 11.57L103.87 11.57L103.87 11.57Q103.82 11.60 103.35 11.85L103.35 11.85L103.35 11.85Q102.98 12.05 102.53 12.23L102.53 12.23L102.53 12.23Q102.17 12.39 101.52 12.51L101.52 12.51L101.52 12.51Q100.91 12.63 100.34 12.64L100.34 12.64L100.34 12.64Q97.97 12.64 96.61 11.39L96.61 11.39L96.61 11.39Q95.27 10.14 95.27 8.02ZM112.20 3.64L112.18 3.08L119.40 3.08L119.40 3.08Q119.41 4.14 119.46 5.28L119.46 5.28L118.92 5.30L118.92 5.30Q118.90 4.66 118.85 4.25L118.85 4.25L118.85 4.25Q118.81 3.89 118.75 3.80L118.75 3.80L118.75 3.80Q118.70 3.71 118.58 3.69L118.58 3.69L118.58 3.69Q118.49 3.68 117.90 3.68L117.90 3.68L115.52 3.68L115.52 3.68Q114.97 3.68 114.83 3.77L114.83 3.77L114.83 3.77Q114.71 3.86 114.71 4.33L114.71 4.33L114.71 6.28L114.71 6.28Q114.71 6.69 114.76 6.76L114.76 6.76L114.76 6.76Q114.83 6.84 115.17 6.84L115.17 6.84L117.28 6.84L117.28 6.84Q117.65 6.84 117.73 6.73L117.73 6.73L117.73 6.73Q117.81 6.63 117.82 6.14L117.82 6.14L117.82 5.61L118.33 5.63L118.33 8.97L117.82 8.97L117.82 8.24L117.82 8.24Q117.82 7.66 117.74 7.57L117.74 7.57L117.74 7.57Q117.66 7.46 117.31 7.46L117.31 7.46L115.21 7.46L115.21 7.46Q114.88 7.46 114.79 7.54L114.79 7.54L114.79 7.54Q114.71 7.63 114.71 7.89L114.71 7.89L114.71 11.20L114.71 11.20Q114.71 11.57 114.79 11.67L114.79 11.67L114.79 11.67Q114.88 11.77 115.15 11.77L115.15 11.77L115.15 11.77Q118.07 11.75 118.60 11.69L118.60 11.69L118.60 11.69Q119.12 11.63 119.20 11.38L119.20 11.38L119.21 11.36L119.21 11.35L119.44 10.17L119.92 10.25L119.57 12.41L112.46 12.41L112.46 11.87L112.83 11.87L112.83 11.87Q113.39 11.87 113.48 11.80L113.48 11.80L113.48 11.80Q113.57 11.72 113.57 11.33L113.57 11.33L113.57 4.24L113.57 4.24Q113.57 3.82 113.42 3.73L113.42 3.73L113.42 3.73Q113.25 3.64 112.59 3.64L112.59 3.64L112.20 3.64ZM137.38 3.64L137.36 3.08L144.57 3.08L144.57 3.08Q144.59 4.14 144.64 5.28L144.64 5.28L144.09 5.30L144.09 5.30Q144.08 4.66 144.03 4.25L144.03 4.25L144.03 4.25Q143.99 3.89 143.93 3.80L143.93 3.80L143.93 3.80Q143.88 3.71 143.76 3.69L143.76 3.69L143.76 3.69Q143.66 3.68 143.08 3.68L143.08 3.68L140.70 3.68L140.70 3.68Q140.15 3.68 140.01 3.77L140.01 3.77L140.01 3.77Q139.88 3.86 139.88 4.33L139.88 4.33L139.88 6.28L139.88 6.28Q139.88 6.69 139.94 6.76L139.94 6.76L139.94 6.76Q140.01 6.84 140.35 6.84L140.35 6.84L142.46 6.84L142.46 6.84Q142.82 6.84 142.91 6.73L142.91 6.73L142.91 6.73Q142.99 6.63 142.99 6.14L142.99 6.14L142.99 5.61L143.51 5.63L143.51 8.97L142.99 8.97L142.99 8.24L142.99 8.24Q142.99 7.66 142.92 7.57L142.92 7.57L142.92 7.57Q142.84 7.46 142.49 7.46L142.49 7.46L140.39 7.46L140.39 7.46Q140.05 7.46 139.97 7.54L139.97 7.54L139.97 7.54Q139.88 7.63 139.88 7.89L139.88 7.89L139.88 11.20L139.88 11.20Q139.88 11.57 139.97 11.67L139.97 11.67L139.97 11.67Q140.05 11.77 140.33 11.77L140.33 11.77L140.33 11.77Q143.25 11.75 143.77 11.69L143.77 11.69L143.77 11.69Q144.29 11.63 144.38 11.38L144.38 11.38L144.38 11.36L144.39 11.35L144.61 10.17L145.09 10.25L144.74 12.41L137.64 12.41L137.64 11.87L138.01 11.87L138.01 11.87Q138.57 11.87 138.65 11.80L138.65 11.80L138.65 11.80Q138.75 11.72 138.75 11.33L138.75 11.33L138.75 4.24L138.75 4.24Q138.75 3.82 138.60 3.73L138.60 3.73L138.60 3.73Q138.43 3.64 137.77 3.64L137.77 3.64L137.38 3.64ZM153.46 3.64L152.97 3.64L152.97 3.08L156.48 3.08L156.47 3.64L155.73 3.64L155.73 3.64Q155.39 3.64 155.39 3.82L155.39 3.82L155.39 3.82Q155.39 3.98 155.59 4.48L155.59 4.48L158.19 10.94L161.13 4.18L161.13 4.18Q161.20 3.97 161.21 3.92L161.21 3.92L161.21 3.92Q161.21 3.79 161.11 3.74L161.11 3.74L161.11 3.74Q161.01 3.68 160.86 3.65L160.86 3.65L160.86 3.65Q160.78 3.64 160.51 3.64L160.51 3.64L160.07 3.64L160.04 3.08L162.88 3.08L162.85 3.64L162.45 3.64L162.45 3.64Q162.13 3.64 161.97 3.83L161.97 3.83L161.97 3.83Q161.89 3.93 161.42 4.94L161.42 4.94L161.42 4.94Q161.21 5.46 161.14 5.57L161.14 5.57L158.01 12.63L157.77 12.63L154.53 4.73L154.53 4.73Q154.21 3.93 154.06 3.79L154.06 3.79L154.06 3.79Q153.90 3.63 153.46 3.64L153.46 3.64ZM170.63 3.64L170.62 3.08L177.83 3.08L177.83 3.08Q177.84 4.14 177.90 5.28L177.90 5.28L177.35 5.30L177.35 5.30Q177.34 4.66 177.28 4.25L177.28 4.25L177.28 4.25Q177.24 3.89 177.19 3.80L177.19 3.80L177.19 3.80Q177.13 3.71 177.02 3.69L177.02 3.69L177.02 3.69Q176.92 3.68 176.33 3.68L176.33 3.68L173.95 3.68L173.95 3.68Q173.41 3.68 173.26 3.77L173.26 3.77L173.26 3.77Q173.14 3.86 173.14 4.33L173.14 4.33L173.14 6.28L173.14 6.28Q173.14 6.69 173.20 6.76L173.20 6.76L173.20 6.76Q173.26 6.84 173.61 6.84L173.61 6.84L175.72 6.84L175.72 6.84Q176.08 6.84 176.16 6.73L176.16 6.73L176.16 6.73Q176.24 6.63 176.25 6.14L176.25 6.14L176.25 5.61L176.76 5.63L176.76 8.97L176.25 8.97L176.25 8.24L176.25 8.24Q176.25 7.66 176.18 7.57L176.18 7.57L176.18 7.57Q176.09 7.46 175.75 7.46L175.75 7.46L173.65 7.46L173.65 7.46Q173.31 7.46 173.23 7.54L173.23 7.54L173.23 7.54Q173.14 7.63 173.14 7.89L173.14 7.89L173.14 11.20L173.14 11.20Q173.14 11.57 173.23 11.67L173.23 11.67L173.23 11.67Q173.31 11.77 173.58 11.77L173.58 11.77L173.58 11.77Q176.50 11.75 177.03 11.69L177.03 11.69L177.03 11.69Q177.55 11.63 177.63 11.38L177.63 11.38L177.64 11.36L177.65 11.35L177.87 10.17L178.35 10.25L178.00 12.41L170.90 12.41L170.90 11.87L171.27 11.87L171.27 11.87Q171.83 11.87 171.91 11.80L171.91 11.80L171.91 11.80Q172.01 11.72 172.01 11.33L172.01 11.33L172.01 4.24L172.01 4.24Q172.01 3.82 171.86 3.73L171.86 3.73L171.86 3.73Q171.68 3.64 171.03 3.64L171.03 3.64L170.63 3.64ZM186.24 3.64L186.22 3.08L188.40 3.08L194.13 10.48L194.13 4.14L194.13 4.14Q194.13 3.81 193.98 3.72L193.98 3.72L193.98 3.72Q193.83 3.64 193.37 3.64L193.37 3.64L192.88 3.64L192.90 3.08L195.88 3.08L195.88 3.64L195.56 3.64L195.56 3.64Q195.10 3.64 194.95 3.75L194.95 3.75L194.95 3.75Q194.80 3.86 194.80 4.25L194.80 4.25L194.80 12.32L194.80 12.47L194.80 12.47Q194.80 12.52 194.78 12.57L194.78 12.57L194.78 12.57Q194.77 12.61 194.74 12.64L194.74 12.64L194.74 12.64Q194.72 12.65 194.67 12.65L194.67 12.65L194.48 12.65L194.41 12.65L194.39 12.65L194.36 12.64L194.36 12.64Q194.33 12.64 194.32 12.63L194.32 12.63L194.32 12.63Q194.30 12.61 194.30 12.60L194.30 12.60L194.30 12.60Q194.30 12.58 194.29 12.57L194.29 12.57L194.29 12.57Q194.26 12.54 194.24 12.50L194.24 12.50L194.24 12.50Q194.22 12.48 194.20 12.45L194.20 12.45L194.20 12.45Q194.18 12.41 194.17 12.40L194.17 12.40L188.06 4.56L188.13 11.22L188.13 11.22Q188.13 11.67 188.30 11.77L188.30 11.77L188.30 11.77Q188.45 11.87 189.16 11.87L189.16 11.87L189.40 11.87L189.40 12.41L186.46 12.41L186.46 11.87L186.89 11.87L186.89 11.87Q187.26 11.87 187.37 11.76L187.37 11.76L187.37 11.76Q187.47 11.66 187.48 11.25L187.48 11.25L187.48 3.80L187.33 3.64L186.24 3.64ZM213.78 3.64L213.19 3.64L213.21 3.08L216.72 3.08L216.72 3.64L216.49 3.64L216.49 3.64Q215.94 3.64 215.77 3.73L215.77 3.73L215.77 3.73Q215.63 3.81 215.63 4.28L215.63 4.28L215.63 11.22L215.63 11.22Q215.63 11.68 215.74 11.77L215.74 11.77L215.74 11.77Q215.85 11.87 216.38 11.87L216.38 11.87L216.93 11.87L216.95 12.41L213.36 12.41L213.35 11.87L213.71 11.87L213.71 11.87Q214.27 11.87 214.39 11.77L214.39 11.77L214.39 11.77Q214.50 11.67 214.50 11.25L214.50 11.25L214.50 4.14L214.50 4.14Q214.50 3.77 214.40 3.71L214.40 3.71L214.40 3.71Q214.29 3.64 213.78 3.64L213.78 3.64ZM224.70 3.64L224.68 3.08L226.86 3.08L232.59 10.48L232.59 4.14L232.59 4.14Q232.59 3.81 232.44 3.72L232.44 3.72L232.44 3.72Q232.29 3.64 231.83 3.64L231.83 3.64L231.33 3.64L231.36 3.08L234.34 3.08L234.34 3.64L234.02 3.64L234.02 3.64Q233.56 3.64 233.41 3.75L233.41 3.75L233.41 3.75Q233.26 3.86 233.26 4.25L233.26 4.25L233.26 12.32L233.26 12.47L233.26 12.47Q233.26 12.52 233.24 12.57L233.24 12.57L233.24 12.57Q233.23 12.61 233.19 12.64L233.19 12.64L233.19 12.64Q233.18 12.65 233.13 12.65L233.13 12.65L232.93 12.65L232.87 12.65L232.85 12.65L232.82 12.64L232.82 12.64Q232.79 12.64 232.78 12.63L232.78 12.63L232.78 12.63Q232.76 12.61 232.76 12.60L232.76 12.60L232.76 12.60Q232.76 12.58 232.75 12.57L232.75 12.57L232.75 12.57Q232.72 12.54 232.70 12.50L232.70 12.50L232.70 12.50Q232.68 12.48 232.66 12.45L232.66 12.45L232.66 12.45Q232.64 12.41 232.63 12.40L232.63 12.40L226.52 4.56L226.59 11.22L226.59 11.22Q226.59 11.67 226.75 11.77L226.75 11.77L226.75 11.77Q226.91 11.87 227.62 11.87L227.62 11.87L227.86 11.87L227.86 12.41L224.92 12.41L224.92 11.87L225.35 11.87L225.35 11.87Q225.72 11.87 225.83 11.76L225.83 11.76L225.83 11.76Q225.93 11.66 225.93 11.25L225.93 11.25L225.93 3.80L225.79 3.64L224.70 3.64ZM251.79 3.64L251.79 3.64L251.81 3.08L254.95 3.08L254.95 3.64L254.67 3.64L254.67 3.64Q254.21 3.64 254.11 3.66L254.11 3.66L254.11 3.66Q253.93 3.71 253.93 3.82L253.93 3.82L253.93 3.82Q253.93 3.89 254.19 4.31L254.19 4.31L256.19 7.46L258.64 3.99L258.64 3.99Q258.72 3.83 258.73 3.82L258.73 3.82L258.73 3.82Q258.73 3.64 257.81 3.64L257.81 3.64L257.59 3.64L257.58 3.08L260.12 3.08L260.12 3.64L260.05 3.64L260.05 3.64Q259.70 3.64 259.56 3.72L259.56 3.72L259.56 3.72Q259.40 3.80 259.12 4.22L259.12 4.22L256.39 8.17L256.39 11.22L256.39 11.22Q256.39 11.66 256.50 11.77L256.50 11.77L256.50 11.77Q256.59 11.87 257.21 11.87L257.21 11.87L257.84 11.87L257.82 12.41L253.89 12.41L253.91 11.87L254.47 11.87L254.47 11.87Q255.00 11.87 255.13 11.79L255.13 11.79L255.13 11.79Q255.25 11.70 255.25 11.25L255.25 11.25L255.25 8.06L252.96 4.49L252.96 4.49Q252.54 3.84 252.41 3.73L252.41 3.73L252.41 3.73Q252.30 3.64 251.79 3.64ZM268.24 7.83L268.24 7.83L268.24 7.83Q268.24 6.62 268.65 5.68L268.65 5.68L268.65 5.68Q269.06 4.72 269.75 4.12L269.75 4.12L269.75 4.12Q270.44 3.51 271.30 3.19L271.30 3.19L271.30 3.19Q272.15 2.88 273.10 2.88L273.10 2.88L273.10 2.88Q274.35 2.88 275.41 3.40L275.41 3.40L275.41 3.40Q276.49 3.93 277.20 5.07L277.20 5.07L277.20 5.07Q277.89 6.17 277.90 7.75L277.90 7.75L277.90 7.75Q277.90 8.70 277.59 9.54L277.59 9.54L277.59 9.54Q277.29 10.38 276.68 11.10L276.68 11.10L276.68 11.10Q276.08 11.81 275.14 12.22L275.14 12.22L275.14 12.22Q274.18 12.63 272.99 12.64L272.99 12.64L272.99 12.64Q271.85 12.64 270.92 12.23L270.92 12.23L270.92 12.23Q269.98 11.83 269.42 11.14L269.42 11.14L269.42 11.14Q268.84 10.45 268.55 9.60L268.55 9.60L268.55 9.60Q268.24 8.72 268.24 7.83ZM269.50 7.38L269.50 7.38L269.50 7.38Q269.50 8.52 269.93 9.60L269.93 9.60L269.93 9.60Q270.33 10.64 271.26 11.33L271.26 11.33L271.26 11.33Q272.17 12.03 273.36 12.04L273.36 12.04L273.36 12.04Q274.74 12.04 275.67 11.01L275.67 11.01L275.67 11.01Q276.62 9.97 276.62 8.10L276.62 8.10L276.62 8.10Q276.62 5.99 275.46 4.72L275.46 4.72L275.46 4.72Q274.31 3.46 272.80 3.45L272.80 3.45L272.80 3.45Q272.28 3.45 271.74 3.65L271.74 3.65L271.74 3.65Q271.20 3.85 270.69 4.25L270.69 4.25L270.69 4.25Q270.14 4.68 269.82 5.48L269.82 5.48L269.82 5.48Q269.50 6.27 269.50 7.38ZM286.40 3.64L286.02 3.64L286.02 3.08L289.38 3.08L289.39 3.64L288.86 3.64L288.86 3.64Q288.43 3.64 288.27 3.73L288.27 3.73L288.27 3.73Q288.10 3.83 288.10 4.16L288.10 4.16L288.10 9.33L288.10 9.33Q288.10 9.63 288.13 9.78L288.13 9.78L288.13 9.78Q288.18 10.01 288.34 10.41L288.34 10.41L288.34 10.41Q288.51 10.80 288.80 11.09L288.80 11.09L288.80 11.09Q289.11 11.40 289.67 11.63L289.67 11.63L289.67 11.63Q290.25 11.85 291.03 11.85L291.03 11.85L291.03 11.85Q291.88 11.85 292.43 11.67L292.43 11.67L292.43 11.67Q292.99 11.48 293.30 11.22L293.30 11.22L293.30 11.22Q293.60 10.96 293.75 10.49L293.75 10.49L293.75 10.49Q293.92 9.95 293.92 9.66L293.92 9.66L293.92 9.66Q293.95 9.18 293.96 8.67L293.96 8.67L293.96 4.14L293.96 4.14Q293.96 3.81 293.82 3.72L293.82 3.72L293.82 3.72Q293.67 3.64 293.19 3.64L293.19 3.64L292.69 3.64L292.72 3.08L295.35 3.08L295.35 3.64L295.16 3.64L295.16 3.64Q294.84 3.64 294.73 3.75L294.73 3.75L294.73 3.75Q294.62 3.86 294.62 4.25L294.62 4.25L294.62 9.22L294.62 9.22Q294.62 12.67 291.03 12.67L291.03 12.67L291.03 12.67Q288.86 12.67 287.91 11.76L287.91 11.76L287.91 11.76Q286.97 10.86 286.97 9.41L286.97 9.41L286.97 4.14L286.97 4.14Q286.97 3.81 286.87 3.72L286.87 3.72L286.87 3.72Q286.76 3.64 286.40 3.64L286.40 3.64ZM303.43 3.64L303.04 3.64L303.05 3.08L306.27 3.08L306.27 3.08Q307.41 3.08 308.01 3.21L308.01 3.21L308.01 3.21Q308.65 3.37 309.11 3.75L309.11 3.75L309.11 3.75Q310.12 4.57 310.12 5.71L310.12 5.71L310.12 5.71Q310.12 6.43 309.65 7.04L309.65 7.04L309.65 7.04Q309.16 7.66 308.12 7.92L308.12 7.92L310.81 11.49L310.81 11.49Q311.12 11.87 311.41 11.87L311.41 11.87L312.01 11.87L312.04 12.41L310.01 12.41L307.02 8.10L306.84 8.10L306.84 8.10Q306.80 8.10 306.75 8.11L306.75 8.11L306.75 8.11Q306.69 8.11 306.68 8.11L306.68 8.11L306.68 8.11Q305.80 8.11 305.40 8.03L305.40 8.03L305.40 11.46L305.40 11.46Q305.40 11.76 305.55 11.81L305.55 11.81L305.55 11.81Q305.67 11.87 306.37 11.87L306.37 11.87L307.08 11.87L307.06 12.41L303.33 12.41L303.33 11.87L303.65 11.87L303.65 11.87Q304.12 11.87 304.19 11.81L304.19 11.81L304.19 11.81Q304.27 11.74 304.27 11.46L304.27 11.46L304.27 4.14L304.27 4.14Q304.27 3.82 304.08 3.73L304.08 3.73L304.08 3.73Q303.85 3.64 303.43 3.64L303.43 3.64ZM305.40 4.28L305.40 7.57L305.40 7.57Q305.59 7.70 306.30 7.71L306.30 7.71L306.30 7.71Q307.57 7.71 308.15 7.27L308.15 7.27L308.15 7.27Q308.74 6.84 308.74 5.92L308.74 5.92L308.74 5.92Q308.74 4.92 307.97 4.27L307.97 4.27L307.97 4.27Q307.21 3.64 305.83 3.64L305.83 3.64L305.83 3.64Q305.57 3.64 305.49 3.75L305.49 3.75L305.49 3.75Q305.41 3.84 305.40 4.28L305.40 4.28ZM329.38 12.41L329.36 11.87L329.53 11.87L329.53 11.87Q329.92 11.87 330.05 11.73L330.05 11.73L330.05 11.73Q330.18 11.57 330.51 10.83L330.51 10.83L331.42 8.82L331.99 7.53L331.99 7.53Q332.26 6.97 332.30 6.86L332.30 6.86L332.30 6.86Q332.37 6.70 332.42 6.60L332.42 6.60L332.42 6.60Q332.47 6.51 332.49 6.45L332.49 6.45L332.58 6.21L334.01 2.74L334.30 2.74L334.30 2.74Q335.16 4.98 337.35 10.25L337.35 10.25L337.35 10.25Q337.80 11.34 337.99 11.64L337.99 11.64L337.99 11.64Q338.13 11.87 338.56 11.87L338.56 11.87L338.78 11.87L338.76 12.41L335.57 12.41L335.58 11.87L336 11.87L336 11.87Q336.62 11.87 336.62 11.70L336.62 11.70L336.62 11.70Q336.62 11.63 336.48 11.27L336.48 11.27L335.44 8.72L332.19 8.72L331.08 11.18L331.08 11.18Q330.95 11.50 330.95 11.63L330.95 11.63L330.95 11.63Q330.95 11.79 331.04 11.83L331.04 11.83L331.04 11.83Q331.14 11.87 331.52 11.87L331.52 11.87L332.10 11.87L332.10 12.41L329.38 12.41ZM333.87 4.79L332.46 8.10L335.20 8.10L333.87 4.79ZM346.90 3.64L346.51 3.64L346.53 3.08L349.63 3.08L349.63 3.08Q351.37 3.08 352.15 3.75L352.15 3.75L352.15 3.75Q352.93 4.42 352.92 5.37L352.92 5.37L352.92 5.37Q352.92 6.08 352.39 6.60L352.39 6.60L352.39 6.60Q351.83 7.14 351.13 7.35L351.13 7.35L351.13 7.35Q352.21 7.57 352.74 8.34L352.74 8.34L352.74 8.34Q353.26 9.08 353.25 10.01L353.25 10.01L353.25 10.01Q353.25 11.01 352.63 11.59L352.63 11.59L352.63 11.59Q352.02 12.13 351.07 12.28L351.07 12.28L351.07 12.28Q350.15 12.41 348.61 12.41L348.61 12.41L346.62 12.41L346.62 11.87L347.04 11.87L347.04 11.87Q347.40 11.87 347.52 11.80L347.52 11.80L347.52 11.80Q347.63 11.73 347.63 11.46L347.63 11.46L347.63 4.14L347.63 4.14Q347.63 3.81 347.48 3.72L347.48 3.72L347.48 3.72Q347.34 3.64 346.90 3.64L346.90 3.64ZM348.74 7.59L348.74 7.59L348.76 11.35L348.76 11.35Q348.76 11.63 348.93 11.71L348.93 11.71L348.93 11.71Q349.10 11.80 349.67 11.80L349.67 11.80L349.67 11.80Q351.93 11.80 351.93 9.91L351.93 9.91L351.93 9.91Q351.93 9.22 351.61 8.73L351.61 8.73L351.61 8.73Q351.29 8.24 350.77 8.02L350.77 8.02L350.77 8.02Q350.18 7.75 349.74 7.68L349.74 7.68L349.74 7.68Q349.26 7.59 348.74 7.59ZM348.76 4.01L348.76 7.19L350.14 7.19L350.14 7.19Q350.79 7.19 351.21 6.66L351.21 6.66L351.21 6.66Q351.61 6.15 351.62 5.54L351.62 5.54L351.62 5.54Q351.62 4.85 351.03 4.27L351.03 4.27L351.03 4.27Q350.46 3.69 349.18 3.69L349.18 3.69L349.18 3.69Q348.76 3.69 348.76 4.01L348.76 4.01ZM361.27 10.04L361.27 10.04L361.76 9.98L361.95 10.85L361.95 10.85Q362.06 11.33 362.13 11.41L362.13 11.41L362.13 11.41Q362.20 11.49 362.61 11.64L362.61 11.64L362.61 11.64Q363.45 11.95 364.34 11.95L364.34 11.95L364.34 11.95Q365.13 11.95 365.67 11.49L365.67 11.49L365.67 11.49Q366.20 11.04 366.20 10.26L366.20 10.26L366.20 10.26Q366.20 9.65 365.74 9.21L365.74 9.21L365.74 9.21Q365.26 8.76 364.41 8.30L364.41 8.30L363.84 7.98L363.84 7.98Q363.09 7.55 362.86 7.36L362.86 7.36L362.86 7.36Q362.50 7.08 362.19 6.59L362.19 6.59L362.19 6.59Q361.87 6.10 361.87 5.46L361.87 5.46L361.87 5.46Q361.87 4.39 362.71 3.68L362.71 3.68L362.71 3.68Q363.56 2.97 364.66 2.97L364.66 2.97L364.66 2.97Q364.94 2.97 365.29 3.04L365.29 3.04L365.29 3.04Q365.49 3.08 365.83 3.17L365.83 3.17L366.06 3.25L366.06 3.25Q366.16 3.25 366.20 3.16L366.20 3.16L366.20 3.16Q366.26 3.05 366.26 2.98L366.26 2.98L366.27 2.88L366.75 2.85L366.96 5.41L366.45 5.43L366.33 4.18L366.33 4.18Q365.59 3.62 364.42 3.62L364.42 3.62L364.42 3.62Q363.78 3.62 363.28 4.05L363.28 4.05L363.28 4.05Q362.80 4.47 362.80 5.12L362.80 5.12L362.80 5.12Q362.80 5.72 363.25 6.17L363.25 6.17L363.25 6.17Q363.68 6.60 364.55 7.08L364.55 7.08L365.32 7.50L365.32 7.50Q366.27 8.03 366.80 8.59L366.80 8.59L366.80 8.59Q367.34 9.15 367.34 9.92L367.34 9.92L367.34 9.92Q367.34 10.99 366.48 11.76L366.48 11.76L366.48 11.76Q365.61 12.54 364.16 12.54L364.16 12.54L364.16 12.54Q363.60 12.54 363.09 12.41L363.09 12.41L363.09 12.41Q362.59 12.29 362.54 12.29L362.54 12.29L362.54 12.29Q362.28 12.29 362.28 12.58L362.28 12.58L362.30 12.76L361.82 12.80L361.82 12.80Q361.76 12.41 361.27 10.04ZM375.53 3.64L375.52 3.08L382.73 3.08L382.73 3.08Q382.74 4.14 382.80 5.28L382.80 5.28L382.25 5.30L382.25 5.30Q382.24 4.66 382.18 4.25L382.18 4.25L382.18 4.25Q382.14 3.89 382.09 3.80L382.09 3.80L382.09 3.80Q382.03 3.71 381.92 3.69L381.92 3.69L381.92 3.69Q381.82 3.68 381.23 3.68L381.23 3.68L378.85 3.68L378.85 3.68Q378.31 3.68 378.16 3.77L378.16 3.77L378.16 3.77Q378.04 3.86 378.04 4.33L378.04 4.33L378.04 6.28L378.04 6.28Q378.04 6.69 378.10 6.76L378.10 6.76L378.10 6.76Q378.16 6.84 378.51 6.84L378.51 6.84L380.62 6.84L380.62 6.84Q380.98 6.84 381.06 6.73L381.06 6.73L381.06 6.73Q381.14 6.63 381.15 6.14L381.15 6.14L381.15 5.61L381.66 5.63L381.66 8.97L381.15 8.97L381.15 8.24L381.15 8.24Q381.15 7.66 381.08 7.57L381.08 7.57L381.08 7.57Q380.99 7.46 380.65 7.46L380.65 7.46L378.55 7.46L378.55 7.46Q378.21 7.46 378.13 7.54L378.13 7.54L378.13 7.54Q378.04 7.63 378.04 7.89L378.04 7.89L378.04 11.20L378.04 11.20Q378.04 11.57 378.13 11.67L378.13 11.67L378.13 11.67Q378.21 11.77 378.49 11.77L378.49 11.77L378.49 11.77Q381.40 11.75 381.93 11.69L381.93 11.69L381.93 11.69Q382.45 11.63 382.53 11.38L382.53 11.38L382.54 11.36L382.55 11.35L382.77 10.17L383.25 10.25L382.90 12.41L375.80 12.41L375.80 11.87L376.17 11.87L376.17 11.87Q376.73 11.87 376.81 11.80L376.81 11.80L376.81 11.80Q376.91 11.72 376.91 11.33L376.91 11.33L376.91 4.24L376.91 4.24Q376.91 3.82 376.76 3.73L376.76 3.73L376.76 3.73Q376.58 3.64 375.93 3.64L375.93 3.64L375.53 3.64ZM391.14 3.64L391.13 3.08L393.30 3.08L399.03 10.48L399.03 4.14L399.03 4.14Q399.03 3.81 398.88 3.72L398.88 3.72L398.88 3.72Q398.73 3.64 398.27 3.64L398.27 3.64L397.78 3.64L397.80 3.08L400.78 3.08L400.78 3.64L400.46 3.64L400.46 3.64Q400.00 3.64 399.85 3.75L399.85 3.75L399.85 3.75Q399.70 3.86 399.70 4.25L399.70 4.25L399.70 12.32L399.70 12.47L399.70 12.47Q399.70 12.52 399.68 12.57L399.68 12.57L399.68 12.57Q399.67 12.61 399.64 12.64L399.64 12.64L399.64 12.64Q399.62 12.65 399.57 12.65L399.57 12.65L399.38 12.65L399.31 12.65L399.29 12.65L399.26 12.64L399.26 12.64Q399.23 12.64 399.22 12.63L399.22 12.63L399.22 12.63Q399.21 12.61 399.21 12.60L399.21 12.60L399.21 12.60Q399.21 12.58 399.19 12.57L399.19 12.57L399.19 12.57Q399.16 12.54 399.14 12.50L399.14 12.50L399.14 12.50Q399.12 12.48 399.10 12.45L399.10 12.45L399.10 12.45Q399.08 12.41 399.07 12.40L399.07 12.40L392.96 4.56L393.03 11.22L393.03 11.22Q393.03 11.67 393.20 11.77L393.20 11.77L393.20 11.77Q393.35 11.87 394.06 11.87L394.06 11.87L394.30 11.87L394.30 12.41L391.36 12.41L391.36 11.87L391.79 11.87L391.79 11.87Q392.16 11.87 392.27 11.76L392.27 11.76L392.27 11.76Q392.37 11.66 392.38 11.25L392.38 11.25L392.38 3.80L392.23 3.64L391.14 3.64ZM408.91 8.02L408.91 8.02L408.91 8.02Q408.91 6.86 409.38 5.83L409.38 5.83L409.38 5.83Q409.84 4.85 410.59 4.27L410.59 4.27L410.59 4.27Q411.34 3.69 412.23 3.37L412.23 3.37L412.23 3.37Q413.13 3.05 413.97 3.05L413.97 3.05L413.97 3.05Q414.84 3.05 415.51 3.16L415.51 3.16L415.51 3.16Q416.14 3.26 416.43 3.37L416.43 3.37L416.43 3.37Q416.74 3.48 416.77 3.48L416.77 3.48L416.77 3.48Q416.94 3.48 416.96 3.41L416.96 3.41L416.96 3.41Q416.99 3.33 416.99 3.09L416.99 3.09L416.99 2.97L417.53 2.97L417.53 2.97Q417.57 4.30 417.70 5.64L417.70 5.64L417.19 5.65L417.19 5.65Q417.16 5.40 417.15 5.26L417.15 5.26L417.15 5.26Q417.15 5.20 417.14 5.13L417.14 5.13L417.14 5.13Q417.14 5.07 417.13 5.02L417.13 5.02L417.13 5.02Q417.12 4.98 417.12 4.95L417.12 4.95L417.12 4.95Q417.09 4.84 417.09 4.74L417.09 4.74L417.09 4.74Q417.09 4.68 417.05 4.59L417.05 4.59L417.05 4.59Q417.05 4.57 417.02 4.55L417.02 4.55L417.02 4.55Q416.99 4.52 416.99 4.50L416.99 4.50L416.99 4.50Q416.96 4.44 416.90 4.41L416.90 4.41L416.90 4.41Q416.86 4.38 416.83 4.37L416.83 4.37L416.83 4.37Q416.80 4.36 416.77 4.35L416.77 4.35L416.77 4.35Q416.76 4.35 416.74 4.33L416.74 4.33L416.74 4.33Q416.71 4.31 416.67 4.29L416.67 4.29L416.67 4.29Q416.63 4.27 416.59 4.25L416.59 4.25L416.59 4.25Q416.36 4.16 416.34 4.14L416.34 4.14L416.34 4.14Q415.99 3.96 415.34 3.83L415.34 3.83L415.34 3.83Q414.67 3.71 414.01 3.71L414.01 3.71L414.01 3.71Q412.29 3.71 411.20 4.84L411.20 4.84L411.20 4.84Q410.09 5.99 410.09 7.62L410.09 7.62L410.09 7.62Q410.09 9.35 411.31 10.69L411.31 10.69L411.31 10.69Q412.51 12.02 414.33 12.02L414.33 12.02L414.33 12.02Q415.34 12.02 416.28 11.49L416.28 11.49L416.28 11.49Q417.23 10.94 417.26 10.58L417.26 10.58L417.30 9.41L417.79 9.41L417.71 11.45L417.71 11.45Q417.64 11.49 417.51 11.57L417.51 11.57L417.51 11.57Q417.46 11.60 416.99 11.85L416.99 11.85L416.99 11.85Q416.62 12.05 416.17 12.23L416.17 12.23L416.17 12.23Q415.81 12.39 415.16 12.51L415.16 12.51L415.16 12.51Q414.55 12.63 413.98 12.64L413.98 12.64L413.98 12.64Q411.61 12.64 410.25 11.39L410.25 11.39L410.25 11.39Q408.91 10.14 408.91 8.02ZM425.84 3.64L425.82 3.08L433.04 3.08L433.04 3.08Q433.05 4.14 433.10 5.28L433.10 5.28L432.56 5.30L432.56 5.30Q432.54 4.66 432.49 4.25L432.49 4.25L432.49 4.25Q432.45 3.89 432.39 3.80L432.39 3.80L432.39 3.80Q432.34 3.71 432.22 3.69L432.22 3.69L432.22 3.69Q432.13 3.68 431.54 3.68L431.54 3.68L429.16 3.68L429.16 3.68Q428.61 3.68 428.47 3.77L428.47 3.77L428.47 3.77Q428.35 3.86 428.35 4.33L428.35 4.33L428.35 6.28L428.35 6.28Q428.35 6.69 428.40 6.76L428.40 6.76L428.40 6.76Q428.47 6.84 428.81 6.84L428.81 6.84L430.92 6.84L430.92 6.84Q431.29 6.84 431.37 6.73L431.37 6.73L431.37 6.73Q431.45 6.63 431.46 6.14L431.46 6.14L431.46 5.61L431.97 5.63L431.97 8.97L431.46 8.97L431.46 8.24L431.46 8.24Q431.46 7.66 431.38 7.57L431.38 7.57L431.38 7.57Q431.30 7.46 430.95 7.46L430.95 7.46L428.85 7.46L428.85 7.46Q428.52 7.46 428.43 7.54L428.43 7.54L428.43 7.54Q428.35 7.63 428.35 7.89L428.35 7.89L428.35 11.20L428.35 11.20Q428.35 11.57 428.43 11.67L428.43 11.67L428.43 11.67Q428.52 11.77 428.79 11.77L428.79 11.77L428.79 11.77Q431.71 11.75 432.24 11.69L432.24 11.69L432.24 11.69Q432.76 11.63 432.84 11.38L432.84 11.38L432.84 11.36L432.85 11.35L433.08 10.17L433.56 10.25L433.21 12.41L426.10 12.41L426.10 11.87L426.47 11.87L426.47 11.87Q427.03 11.87 427.12 11.80L427.12 11.80L427.12 11.80Q427.21 11.72 427.21 11.33L427.21 11.33L427.21 4.24L427.21 4.24Q427.21 3.82 427.06 3.73L427.06 3.73L427.06 3.73Q426.89 3.64 426.23 3.64L426.23 3.64L425.84 3.64Z"></path></g></svg>