<svg data-v-423bf9ae="" xmlns="http://www.w3.org/2000/svg" viewBox="0 0 56.712956638429205 60" class="icon"><!----><!----><!----><!----><g data-v-423bf9ae="" id="8193eb12-7d5a-40d5-a036-4357a330873d" transform="matrix(0.6210082173347473,0,0,0.6210082173347473,-1.4531604051589966,0.19193531572818756)" stroke="none" fill="white"><path d="M87.88 24.416V1.692c0-.724-.396-1.392-1.024-1.744a1.992 1.992 0 0 0-2.023.04L67.428 10.68c-5.648-2.068-12.5-3.24-18.976-3.24-6.716 0-14.164 1.236-19.732 3.244L10.908-.024a1.998 1.998 0 0 0-2.016-.024 1.992 1.992 0 0 0-1.016 1.74V24.42C4.2 29.752 2.34 36.436 2.34 44.4l.616 13.552c.04.828.584 1.556 1.372 1.808l9.996 3.301-3.352 13.699c-.168.688.04 1.416.556 1.912.512.5 1.252.68 1.932.484l11.46-3.268 3.484 18.783c.112.608.5 1.133 1.052 1.416.548.276 1.2.292 1.76.032l16.9-7.864L65 96.12c.264.128.561.188.844.188.313 0 .62-.076.912-.217a2.014 2.014 0 0 0 1.053-1.412l3.455-18.068 11.457 2.945c.172.047.352.071.539.063 1.112-.048 2.04-.884 2.04-2 0-.36-.096-.704-.268-1l-3.337-13.396 9.793-3.381a1.987 1.987 0 0 0 1.344-1.764l.832-13.728c0-7.69-1.948-14.394-5.784-19.934zM68.296 31.88l-8.416 5.408v29.868c.017.132.084.252.084.392s-.067.257-.084.392v.256c0 .584-.26 1.109-.668 1.473-1.792 2.551-6.72 3.751-11.412 3.751-5.852 0-12.152-1.844-12.152-5.88 0-.412.104-.784.232-1.151V37.284l-8.416-5.408a2.002 2.002 0 0 1-.6-2.764 1.998 1.998 0 0 1 2.764-.6l9.336 6a2 2 0 0 1 .916 1.68v26.785c2.26-.881 5.132-1.313 7.92-1.313 2.849 0 5.796.443 8.08 1.359V36.196c0-.676.345-1.316.916-1.68l9.328-6a1.998 1.998 0 0 1 2.765.6 1.994 1.994 0 0 1-.593 2.764z"></path><path d="M39.88 67.436v.44c.84.468 3.524 1.544 7.92 1.544 4.776 0 7.513-1.264 8.08-1.916v-.184c-.567-.385-3.304-1.645-8.08-1.645-4.392.001-7.08 1.081-7.92 1.761z"></path></g><!----></svg>